<svg xmlns="http://www.w3.org/2000/svg" xmlns:xlink="http://www.w3.org/1999/xlink" width="83cm" height="47cm" viewBox="-160 -379 1656 938"><g><rect width="239" height="145" x="507.333" y="15" style="fill:#fff"/><rect width="239" height="145" x="507.333" y="15" style="fill:none;fill-opacity:0;stroke-width:2;stroke:#000"/></g><text x="602.167" y="100.833" font-size="12.8" style="fill:#000;text-anchor:start;font-family:sans-serif;font-style:normal;font-weight:400"><tspan x="602.167" y="100.833">Cluster</tspan></text><g><rect width="239" height="145" x="-131.1" y="350" style="fill:#add8e6"/><rect width="239" height="145" x="-131.1" y="350" style="fill:none;fill-opacity:0;stroke-width:2;stroke:#000"/></g><g><rect width="239" height="145" x="170.8" y="347" style="fill:#add8e6"/><rect width="239" height="145" x="170.8" y="347" style="fill:none;fill-opacity:0;stroke-width:2;stroke:#000"/></g><g><rect width="239" height="145" x="430.7" y="349" style="fill:#add8e6"/><rect width="239" height="145" x="430.7" y="349" style="fill:none;fill-opacity:0;stroke-width:2;stroke:#000"/></g><text x="-36.6" y="424.5" font-size="12.8" style="fill:#000;text-anchor:start;font-family:sans-serif;font-style:normal;font-weight:400"><tspan x="-36.6" y="424.5">Shard</tspan></text><text x="267.3" y="419.5" font-size="12.8" style="fill:#000;text-anchor:start;font-family:sans-serif;font-style:normal;font-weight:400"><tspan x="267.3" y="419.5">Shard</tspan></text><text x="530.2" y="421.5" font-size="12.8" style="fill:#000;text-anchor:start;font-family:sans-serif;font-style:normal;font-weight:400"><tspan x="530.2" y="421.5">Shard</tspan></text><g><rect width="239" height="145" x="836.9" y="355" style="fill:#add8e6"/><rect width="239" height="145" x="836.9" y="355" style="fill:none;fill-opacity:0;stroke-width:2;stroke:#000"/></g><text x="903.4" y="435.5" font-size="12.8" style="fill:#000;text-anchor:start;font-family:sans-serif;font-style:normal;font-weight:400"><tspan x="903.4" y="435.5">REST Request Queue</tspan></text><g><rect width="239" height="145" x="1194.8" y="357" style="fill:#add8e6"/><rect width="239" height="145" x="1194.8" y="357" style="fill:none;fill-opacity:0;stroke-width:2;stroke:#000"/></g><text x="1267.3" y="431.5" font-size="12.8" style="fill:#000;text-anchor:start;font-family:sans-serif;font-style:normal;font-weight:400"><tspan x="1267.3" y="431.5">REST Reply Queue</tspan></text><g><rect width="239" height="145" x="1193.8" y="79" style="fill:#add8e6"/><rect width="239" height="145" x="1193.8" y="79" style="fill:none;fill-opacity:0;stroke-width:2;stroke:#000"/></g><text x="1259.3" y="152.5" font-size="12.8" style="fill:#000;text-anchor:start;font-family:sans-serif;font-style:normal;font-weight:400"><tspan x="1259.3" y="152.5">User Callback Functions</tspan></text><g><rect width="239" height="145" x="30.8" y="79" style="fill:#add8e6"/><rect width="239" height="145" x="30.8" y="79" style="fill:none;fill-opacity:0;stroke-width:2;stroke:#000"/></g><text x="102.3" y="158.5" font-size="12.8" style="fill:#000;text-anchor:start;font-family:sans-serif;font-style:normal;font-weight:400"><tspan x="102.3" y="158.5">Discord Events</tspan></text><g><rect width="239" height="145" x="837.8" y="136" style="fill:#fff"/><rect width="239" height="145" x="837.8" y="136" style="fill:none;fill-opacity:0;stroke-width:2;stroke:#000"/></g><text x="896.3" y="213.167" font-size="12.8" style="fill:#000;text-anchor:start;font-family:sans-serif;font-style:normal;font-weight:400"><tspan x="896.3" y="213.167">Discord REST Requests</tspan></text><g><line x1="609.972" x2="569.239" y1="160.991" y2="338.52" style="fill:none;fill-opacity:0;stroke-width:2;stroke:#000"/><polygon points="567.562 345.83 564.925 334.965 569.239 338.52 574.671 337.201" style="fill:#000"/><polygon points="567.562 345.83 564.925 334.965 569.239 338.52 574.671 337.201" style="fill:none;fill-opacity:0;stroke-width:2;stroke:#000"/></g><g><line x1="552.354" x2="371.71" y1="160.976" y2="339.186" style="fill:none;fill-opacity:0;stroke-width:2;stroke:#000"/><polygon points="366.371 344.454 369.979 333.871 371.71 339.186 377.002 340.99" style="fill:#000"/><polygon points="366.371 344.454 369.979 333.871 371.71 339.186 377.002 340.99" style="fill:none;fill-opacity:0;stroke-width:2;stroke:#000"/></g><g><line x1="506.338" x2="117.517" y1="150.727" y2="354.75" style="fill:none;fill-opacity:0;stroke-width:2;stroke:#000"/><polygon points="110.875 358.234 117.407 349.161 117.517 354.75 122.054 358.016" style="fill:#000"/><polygon points="110.875 358.234 117.407 349.161 117.517 354.75 122.054 358.016" style="fill:none;fill-opacity:0;stroke-width:2;stroke:#000"/></g><g><line x1="441.328" x2="267.241" y1="347.993" y2="230.455" style="fill:none;fill-opacity:0;stroke-width:2;stroke:#000"/><polygon points="261.025 226.258 272.111 227.71 267.241 230.455 266.515 235.998" style="fill:#000"/><polygon points="261.025 226.258 272.111 227.71 267.241 230.455 266.515 235.998" style="fill:none;fill-opacity:0;stroke-width:2;stroke:#000"/></g><g><line x1="251.908" x2="193.2" y1="346.006" y2="233.624" style="fill:none;fill-opacity:0;stroke-width:2;stroke:#000"/><polygon points="189.728 226.976 198.79 233.524 193.2 233.624 189.926 238.155" style="fill:#000"/><polygon points="189.728 226.976 198.79 233.524 193.2 233.624 189.926 238.155" style="fill:none;fill-opacity:0;stroke-width:2;stroke:#000"/></g><g><line x1="32.294" x2="101.413" y1="349.027" y2="233.331" style="fill:none;fill-opacity:0;stroke-width:2;stroke:#000"/><polygon points="105.259 226.893 104.423 238.042 101.413 233.331 95.838 232.913" style="fill:#000"/><polygon points="105.259 226.893 104.423 238.042 101.413 233.331 95.838 232.913" style="fill:none;fill-opacity:0;stroke-width:2;stroke:#000"/></g><g><line x1="956.998" x2="956.742" y1="281.99" y2="344.274" style="fill:none;fill-opacity:0;stroke-width:2;stroke:#000"/><polygon points="956.711 351.774 951.752 341.753 956.742 344.274 961.752 341.795" style="fill:#000"/><polygon points="956.711 351.774 951.752 341.753 956.742 344.274 961.752 341.795" style="fill:none;fill-opacity:0;stroke-width:2;stroke:#000"/></g><g><line x1="1076.91" x2="1184.06" y1="428.173" y2="428.772" style="fill:none;fill-opacity:0;stroke-width:2;stroke:#000"/><polygon points="1191.56 428.814 1181.53 433.758 1184.06 428.772 1181.59 423.758" style="fill:#000"/><polygon points="1191.56 428.814 1181.53 433.758 1184.06 428.772 1181.59 423.758" style="fill:none;fill-opacity:0;stroke-width:2;stroke:#000"/></g><g><line x1="1314.04" x2="1313.6" y1="356.03" y2="234.707" style="fill:none;fill-opacity:0;stroke-width:2;stroke:#000"/><polygon points="1313.57 227.207 1318.61 237.189 1313.6 234.707 1308.61 237.225" style="fill:#000"/><polygon points="1313.57 227.207 1318.61 237.189 1313.6 234.707 1308.61 237.225" style="fill:none;fill-opacity:0;stroke-width:2;stroke:#000"/></g><g><path d="M 628.088 -377.056 L 914.516,-377.056 L 971.802,-239.556 L 914.516,-102.056 L 628.088,-102.056 L 570.802,-239.556 L 628.088,-377.056z" style="fill:#fff"/><path d="M 628.088 -377.056 L 914.516,-377.056 L 971.802,-239.556 L 914.516,-102.056 L 628.088,-102.056 L 570.802,-239.556 L 628.088,-377.056" style="fill:none;fill-opacity:0;stroke-width:2;stroke:#000"/><text x="771.302" y="-234.556" font-size="12.8" style="fill:#000;text-anchor:middle;font-family:sans-serif;font-style:normal;font-weight:400"><tspan x="771.302" y="-234.556">Your Program</tspan></text></g><g><line x1="743.146" x2="677.292" y1="-101.05" y2="5.704" style="fill:none;fill-opacity:0;stroke-width:2;stroke:#000"/><polygon points="673.354 12.087 674.349 .951 677.292 5.704 682.86 6.201" style="fill:#000"/><polygon points="673.354 12.087 674.349 .951 677.292 5.704 682.86 6.201" style="fill:none;fill-opacity:0;stroke-width:2;stroke:#000"/></g><g><line x1="270.793" x2="611.459" y1="82.032" y2="-114.374" style="fill:none;fill-opacity:0;stroke-width:2;stroke:#000"/><polygon points="617.956 -118.12 611.79 -108.793 611.459 -114.374 606.796 -117.457" style="fill:#000"/><polygon points="617.956 -118.12 611.79 -108.793 611.459 -114.374 606.796 -117.457" style="fill:none;fill-opacity:0;stroke-width:2;stroke:#000"/></g><g><line x1="747.34" x2="827.651" y1="131.623" y2="161.029" style="fill:none;fill-opacity:0;stroke-width:2;stroke:#000"/><polygon points="834.694 163.608 823.585 164.865 827.651 161.029 827.023 155.475" style="fill:#000"/><polygon points="834.694 163.608 823.585 164.865 827.651 161.029 827.023 155.475" style="fill:none;fill-opacity:0;stroke-width:2;stroke:#000"/></g><g><line x1="1222.3" x2="944.164" y1="78.082" y2="-146.312" style="fill:none;fill-opacity:0;stroke-width:2;stroke:#000"/><polygon points="938.327 -151.021 949.249 -148.634 944.164 -146.312 942.97 -140.851" style="fill:#000"/><polygon points="938.327 -151.021 949.249 -148.634 944.164 -146.312 942.97 -140.851" style="fill:none;fill-opacity:0;stroke-width:2;stroke:#000"/></g><g><rect width="283.3" height="24.5" x="-159.031" y="517.977" style="fill:#add8e6"/><text x="-159.031" y="538.277" font-size="20.32" style="fill:#7f7f7f;text-anchor:start;font-family:sans-serif;font-style:normal;font-weight:400"><tspan x="-159.031" y="538.277">Each shard is a separate thread</tspan></text></g><g><rect width="324.8" height="24.5" x="809.533" y="510.844" style="fill:#add8e6"/><text x="809.533" y="531.144" font-size="20.32" style="fill:#7f7f7f;text-anchor:start;font-family:sans-serif;font-style:normal;font-weight:400"><tspan x="809.533" y="531.144">Request queue is a separate thread.</tspan></text></g><g><rect width="355.55" height="49.9" x="1141.14" y="509.177" style="fill:#add8e6"/><text x="1141.14" y="529.477" font-size="20.32" style="fill:#7f7f7f;text-anchor:start;font-family:sans-serif;font-style:normal;font-weight:400"><tspan x="1141.14" y="529.477">Reply queue is a separate thread, order</tspan> <tspan x="1141.14" y="554.877">of replies is guaranteed.</tspan></text></g><g><rect width="502.5" height="24.5" x="184.9" y="517.444" style="fill:#add8e6"/><text x="184.9" y="537.744" font-size="20.32" style="fill:#7f7f7f;text-anchor:start;font-family:sans-serif;font-style:normal;font-weight:400"><tspan x="184.9" y="537.744">You may create as many shards per cluster as you need</tspan></text></g></svg>